<?xml version="1.0" encoding="utf-8" standalone="no"?>
<!DOCTYPE svg PUBLIC "-//W3C//DTD SVG 1.1//EN"
  "http://www.w3.org/Graphics/SVG/1.1/DTD/svg11.dtd">
<svg xmlns:xlink="http://www.w3.org/1999/xlink" width="1080pt" height="288pt" viewBox="0 0 1080 288" xmlns="http://www.w3.org/2000/svg" version="1.1">
 <metadata>
  <rdf:RDF xmlns:dc="http://purl.org/dc/elements/1.1/" xmlns:cc="http://creativecommons.org/ns#" xmlns:rdf="http://www.w3.org/1999/02/22-rdf-syntax-ns#">
   <cc:Work>
    <dc:type rdf:resource="http://purl.org/dc/dcmitype/StillImage"/>
    <dc:date>2025-02-10T18:04:03.423237</dc:date>
    <dc:format>image/svg+xml</dc:format>
    <dc:creator>
     <cc:Agent>
      <dc:title>Matplotlib v3.10.0, https://matplotlib.org/</dc:title>
     </cc:Agent>
    </dc:creator>
   </cc:Work>
  </rdf:RDF>
 </metadata>
 <defs>
  <style type="text/css">*{stroke-linejoin: round; stroke-linecap: butt}</style>
 </defs>
 <g id="figure_1">
  <g id="patch_1">
   <path d="M 0 288 
L 1080 288 
L 1080 0 
L 0 0 
z
" style="fill: #ffffff"/>
  </g>
  <g id="axes_1">
   <g id="patch_2">
    <path d="M 41.09 255.46 
L 1067.04 255.46 
L 1067.04 39.6 
L 41.09 39.6 
z
" style="fill: #ffffff"/>
   </g>
   <g id="matplotlib.axis_1">
    <g id="xtick_1">
     <g id="line2d_1">
      <defs>
       <path id="m2de72f032b" d="M 0 0 
L 0 6 
" style="stroke: #262626; stroke-width: 1.25"/>
      </defs>
      <g>
       <use xlink:href="#m2de72f032b" x="212.081667" y="255.46" style="fill: #262626; stroke: #262626; stroke-width: 1.25"/>
      </g>
     </g>
     <g id="text_1">
      <!-- Sales -->
      <g style="fill: #262626" transform="translate(198.323932 272.833594) scale(0.11 -0.11)">
       <defs>
        <path id="ArialMT-53" d="M 288 1472 
L 859 1522 
Q 900 1178 1048 958 
Q 1197 738 1509 602 
Q 1822 466 2213 466 
Q 2559 466 2825 569 
Q 3091 672 3220 851 
Q 3350 1031 3350 1244 
Q 3350 1459 3225 1620 
Q 3100 1781 2813 1891 
Q 2628 1963 1997 2114 
Q 1366 2266 1113 2400 
Q 784 2572 623 2826 
Q 463 3081 463 3397 
Q 463 3744 659 4045 
Q 856 4347 1234 4503 
Q 1613 4659 2075 4659 
Q 2584 4659 2973 4495 
Q 3363 4331 3572 4012 
Q 3781 3694 3797 3291 
L 3216 3247 
Q 3169 3681 2898 3903 
Q 2628 4125 2100 4125 
Q 1550 4125 1298 3923 
Q 1047 3722 1047 3438 
Q 1047 3191 1225 3031 
Q 1400 2872 2139 2705 
Q 2878 2538 3153 2413 
Q 3553 2228 3743 1945 
Q 3934 1663 3934 1294 
Q 3934 928 3725 604 
Q 3516 281 3123 101 
Q 2731 -78 2241 -78 
Q 1619 -78 1198 103 
Q 778 284 539 648 
Q 300 1013 288 1472 
z
" transform="scale(0.015625)"/>
        <path id="ArialMT-61" d="M 2588 409 
Q 2275 144 1986 34 
Q 1697 -75 1366 -75 
Q 819 -75 525 192 
Q 231 459 231 875 
Q 231 1119 342 1320 
Q 453 1522 633 1644 
Q 813 1766 1038 1828 
Q 1203 1872 1538 1913 
Q 2219 1994 2541 2106 
Q 2544 2222 2544 2253 
Q 2544 2597 2384 2738 
Q 2169 2928 1744 2928 
Q 1347 2928 1158 2789 
Q 969 2650 878 2297 
L 328 2372 
Q 403 2725 575 2942 
Q 747 3159 1072 3276 
Q 1397 3394 1825 3394 
Q 2250 3394 2515 3294 
Q 2781 3194 2906 3042 
Q 3031 2891 3081 2659 
Q 3109 2516 3109 2141 
L 3109 1391 
Q 3109 606 3145 398 
Q 3181 191 3288 0 
L 2700 0 
Q 2613 175 2588 409 
z
M 2541 1666 
Q 2234 1541 1622 1453 
Q 1275 1403 1131 1340 
Q 988 1278 909 1158 
Q 831 1038 831 891 
Q 831 666 1001 516 
Q 1172 366 1500 366 
Q 1825 366 2078 508 
Q 2331 650 2450 897 
Q 2541 1088 2541 1459 
L 2541 1666 
z
" transform="scale(0.015625)"/>
        <path id="ArialMT-6c" d="M 409 0 
L 409 4581 
L 972 4581 
L 972 0 
L 409 0 
z
" transform="scale(0.015625)"/>
        <path id="ArialMT-65" d="M 2694 1069 
L 3275 997 
Q 3138 488 2766 206 
Q 2394 -75 1816 -75 
Q 1088 -75 661 373 
Q 234 822 234 1631 
Q 234 2469 665 2931 
Q 1097 3394 1784 3394 
Q 2450 3394 2872 2941 
Q 3294 2488 3294 1666 
Q 3294 1616 3291 1516 
L 816 1516 
Q 847 969 1125 678 
Q 1403 388 1819 388 
Q 2128 388 2347 550 
Q 2566 713 2694 1069 
z
M 847 1978 
L 2700 1978 
Q 2663 2397 2488 2606 
Q 2219 2931 1791 2931 
Q 1403 2931 1139 2672 
Q 875 2413 847 1978 
z
" transform="scale(0.015625)"/>
        <path id="ArialMT-73" d="M 197 991 
L 753 1078 
Q 800 744 1014 566 
Q 1228 388 1613 388 
Q 2000 388 2187 545 
Q 2375 703 2375 916 
Q 2375 1106 2209 1216 
Q 2094 1291 1634 1406 
Q 1016 1563 777 1677 
Q 538 1791 414 1992 
Q 291 2194 291 2438 
Q 291 2659 392 2848 
Q 494 3038 669 3163 
Q 800 3259 1026 3326 
Q 1253 3394 1513 3394 
Q 1903 3394 2198 3281 
Q 2494 3169 2634 2976 
Q 2775 2784 2828 2463 
L 2278 2388 
Q 2241 2644 2061 2787 
Q 1881 2931 1553 2931 
Q 1166 2931 1000 2803 
Q 834 2675 834 2503 
Q 834 2394 903 2306 
Q 972 2216 1119 2156 
Q 1203 2125 1616 2013 
Q 2213 1853 2448 1751 
Q 2684 1650 2818 1456 
Q 2953 1263 2953 975 
Q 2953 694 2789 445 
Q 2625 197 2315 61 
Q 2006 -75 1616 -75 
Q 969 -75 630 194 
Q 291 463 197 991 
z
" transform="scale(0.015625)"/>
       </defs>
       <use xlink:href="#ArialMT-53"/>
       <use xlink:href="#ArialMT-61" transform="translate(66.699219 0)"/>
       <use xlink:href="#ArialMT-6c" transform="translate(122.314453 0)"/>
       <use xlink:href="#ArialMT-65" transform="translate(144.53125 0)"/>
       <use xlink:href="#ArialMT-73" transform="translate(200.146484 0)"/>
      </g>
     </g>
    </g>
    <g id="xtick_2">
     <g id="line2d_2">
      <g>
       <use xlink:href="#m2de72f032b" x="554.065" y="255.46" style="fill: #262626; stroke: #262626; stroke-width: 1.25"/>
      </g>
     </g>
     <g id="text_2">
      <!-- Profit -->
      <g style="fill: #262626" transform="translate(541.228516 272.833594) scale(0.11 -0.11)">
       <defs>
        <path id="ArialMT-50" d="M 494 0 
L 494 4581 
L 2222 4581 
Q 2678 4581 2919 4538 
Q 3256 4481 3484 4323 
Q 3713 4166 3852 3881 
Q 3991 3597 3991 3256 
Q 3991 2672 3619 2267 
Q 3247 1863 2275 1863 
L 1100 1863 
L 1100 0 
L 494 0 
z
M 1100 2403 
L 2284 2403 
Q 2872 2403 3119 2622 
Q 3366 2841 3366 3238 
Q 3366 3525 3220 3729 
Q 3075 3934 2838 4000 
Q 2684 4041 2272 4041 
L 1100 4041 
L 1100 2403 
z
" transform="scale(0.015625)"/>
        <path id="ArialMT-72" d="M 416 0 
L 416 3319 
L 922 3319 
L 922 2816 
Q 1116 3169 1280 3281 
Q 1444 3394 1641 3394 
Q 1925 3394 2219 3213 
L 2025 2691 
Q 1819 2813 1613 2813 
Q 1428 2813 1281 2702 
Q 1134 2591 1072 2394 
Q 978 2094 978 1738 
L 978 0 
L 416 0 
z
" transform="scale(0.015625)"/>
        <path id="ArialMT-6f" d="M 213 1659 
Q 213 2581 725 3025 
Q 1153 3394 1769 3394 
Q 2453 3394 2887 2945 
Q 3322 2497 3322 1706 
Q 3322 1066 3130 698 
Q 2938 331 2570 128 
Q 2203 -75 1769 -75 
Q 1072 -75 642 372 
Q 213 819 213 1659 
z
M 791 1659 
Q 791 1022 1069 705 
Q 1347 388 1769 388 
Q 2188 388 2466 706 
Q 2744 1025 2744 1678 
Q 2744 2294 2464 2611 
Q 2184 2928 1769 2928 
Q 1347 2928 1069 2612 
Q 791 2297 791 1659 
z
" transform="scale(0.015625)"/>
        <path id="ArialMT-66" d="M 556 0 
L 556 2881 
L 59 2881 
L 59 3319 
L 556 3319 
L 556 3672 
Q 556 4006 616 4169 
Q 697 4388 901 4523 
Q 1106 4659 1475 4659 
Q 1713 4659 2000 4603 
L 1916 4113 
Q 1741 4144 1584 4144 
Q 1328 4144 1222 4034 
Q 1116 3925 1116 3625 
L 1116 3319 
L 1763 3319 
L 1763 2881 
L 1116 2881 
L 1116 0 
L 556 0 
z
" transform="scale(0.015625)"/>
        <path id="ArialMT-69" d="M 425 3934 
L 425 4581 
L 988 4581 
L 988 3934 
L 425 3934 
z
M 425 0 
L 425 3319 
L 988 3319 
L 988 0 
L 425 0 
z
" transform="scale(0.015625)"/>
        <path id="ArialMT-74" d="M 1650 503 
L 1731 6 
Q 1494 -44 1306 -44 
Q 1000 -44 831 53 
Q 663 150 594 308 
Q 525 466 525 972 
L 525 2881 
L 113 2881 
L 113 3319 
L 525 3319 
L 525 4141 
L 1084 4478 
L 1084 3319 
L 1650 3319 
L 1650 2881 
L 1084 2881 
L 1084 941 
Q 1084 700 1114 631 
Q 1144 563 1211 522 
Q 1278 481 1403 481 
Q 1497 481 1650 503 
z
" transform="scale(0.015625)"/>
       </defs>
       <use xlink:href="#ArialMT-50"/>
       <use xlink:href="#ArialMT-72" transform="translate(66.699219 0)"/>
       <use xlink:href="#ArialMT-6f" transform="translate(100 0)"/>
       <use xlink:href="#ArialMT-66" transform="translate(155.615234 0)"/>
       <use xlink:href="#ArialMT-69" transform="translate(183.398438 0)"/>
       <use xlink:href="#ArialMT-74" transform="translate(205.615234 0)"/>
      </g>
     </g>
    </g>
    <g id="xtick_3">
     <g id="line2d_3">
      <g>
       <use xlink:href="#m2de72f032b" x="896.048333" y="255.46" style="fill: #262626; stroke: #262626; stroke-width: 1.25"/>
      </g>
     </g>
     <g id="text_3">
      <!-- Discount -->
      <g style="fill: #262626" transform="translate(874.650755 272.833594) scale(0.11 -0.11)">
       <defs>
        <path id="ArialMT-44" d="M 494 0 
L 494 4581 
L 2072 4581 
Q 2606 4581 2888 4516 
Q 3281 4425 3559 4188 
Q 3922 3881 4101 3404 
Q 4281 2928 4281 2316 
Q 4281 1794 4159 1391 
Q 4038 988 3847 723 
Q 3656 459 3429 307 
Q 3203 156 2883 78 
Q 2563 0 2147 0 
L 494 0 
z
M 1100 541 
L 2078 541 
Q 2531 541 2789 625 
Q 3047 709 3200 863 
Q 3416 1078 3536 1442 
Q 3656 1806 3656 2325 
Q 3656 3044 3420 3430 
Q 3184 3816 2847 3947 
Q 2603 4041 2063 4041 
L 1100 4041 
L 1100 541 
z
" transform="scale(0.015625)"/>
        <path id="ArialMT-63" d="M 2588 1216 
L 3141 1144 
Q 3050 572 2676 248 
Q 2303 -75 1759 -75 
Q 1078 -75 664 370 
Q 250 816 250 1647 
Q 250 2184 428 2587 
Q 606 2991 970 3192 
Q 1334 3394 1763 3394 
Q 2303 3394 2647 3120 
Q 2991 2847 3088 2344 
L 2541 2259 
Q 2463 2594 2264 2762 
Q 2066 2931 1784 2931 
Q 1359 2931 1093 2626 
Q 828 2322 828 1663 
Q 828 994 1084 691 
Q 1341 388 1753 388 
Q 2084 388 2306 591 
Q 2528 794 2588 1216 
z
" transform="scale(0.015625)"/>
        <path id="ArialMT-75" d="M 2597 0 
L 2597 488 
Q 2209 -75 1544 -75 
Q 1250 -75 995 37 
Q 741 150 617 320 
Q 494 491 444 738 
Q 409 903 409 1263 
L 409 3319 
L 972 3319 
L 972 1478 
Q 972 1038 1006 884 
Q 1059 663 1231 536 
Q 1403 409 1656 409 
Q 1909 409 2131 539 
Q 2353 669 2445 892 
Q 2538 1116 2538 1541 
L 2538 3319 
L 3100 3319 
L 3100 0 
L 2597 0 
z
" transform="scale(0.015625)"/>
        <path id="ArialMT-6e" d="M 422 0 
L 422 3319 
L 928 3319 
L 928 2847 
Q 1294 3394 1984 3394 
Q 2284 3394 2536 3286 
Q 2788 3178 2913 3003 
Q 3038 2828 3088 2588 
Q 3119 2431 3119 2041 
L 3119 0 
L 2556 0 
L 2556 2019 
Q 2556 2363 2490 2533 
Q 2425 2703 2258 2804 
Q 2091 2906 1866 2906 
Q 1506 2906 1245 2678 
Q 984 2450 984 1813 
L 984 0 
L 422 0 
z
" transform="scale(0.015625)"/>
       </defs>
       <use xlink:href="#ArialMT-44"/>
       <use xlink:href="#ArialMT-69" transform="translate(72.216797 0)"/>
       <use xlink:href="#ArialMT-73" transform="translate(94.433594 0)"/>
       <use xlink:href="#ArialMT-63" transform="translate(144.433594 0)"/>
       <use xlink:href="#ArialMT-6f" transform="translate(194.433594 0)"/>
       <use xlink:href="#ArialMT-75" transform="translate(250.048828 0)"/>
       <use xlink:href="#ArialMT-6e" transform="translate(305.664062 0)"/>
       <use xlink:href="#ArialMT-74" transform="translate(361.279297 0)"/>
      </g>
     </g>
    </g>
   </g>
   <g id="matplotlib.axis_2">
    <g id="ytick_1">
     <g id="line2d_4">
      <defs>
       <path id="m9f7b9d88ae" d="M 0 0 
L -6 0 
" style="stroke: #262626; stroke-width: 1.25"/>
      </defs>
      <g>
       <use xlink:href="#m9f7b9d88ae" x="41.09" y="249.842805" style="fill: #262626; stroke: #262626; stroke-width: 1.25"/>
      </g>
     </g>
     <g id="text_4">
      <!-- −30 -->
      <g style="fill: #262626" transform="translate(12.93125 253.779602) scale(0.11 -0.11)">
       <defs>
        <path id="ArialMT-2212" d="M 3381 1997 
L 356 1997 
L 356 2522 
L 3381 2522 
L 3381 1997 
z
" transform="scale(0.015625)"/>
        <path id="ArialMT-33" d="M 269 1209 
L 831 1284 
Q 928 806 1161 595 
Q 1394 384 1728 384 
Q 2125 384 2398 659 
Q 2672 934 2672 1341 
Q 2672 1728 2419 1979 
Q 2166 2231 1775 2231 
Q 1616 2231 1378 2169 
L 1441 2663 
Q 1497 2656 1531 2656 
Q 1891 2656 2178 2843 
Q 2466 3031 2466 3422 
Q 2466 3731 2256 3934 
Q 2047 4138 1716 4138 
Q 1388 4138 1169 3931 
Q 950 3725 888 3313 
L 325 3413 
Q 428 3978 793 4289 
Q 1159 4600 1703 4600 
Q 2078 4600 2393 4439 
Q 2709 4278 2876 4000 
Q 3044 3722 3044 3409 
Q 3044 3113 2884 2869 
Q 2725 2625 2413 2481 
Q 2819 2388 3044 2092 
Q 3269 1797 3269 1353 
Q 3269 753 2831 336 
Q 2394 -81 1725 -81 
Q 1122 -81 723 278 
Q 325 638 269 1209 
z
" transform="scale(0.015625)"/>
        <path id="ArialMT-30" d="M 266 2259 
Q 266 3072 433 3567 
Q 600 4063 929 4331 
Q 1259 4600 1759 4600 
Q 2128 4600 2406 4451 
Q 2684 4303 2865 4023 
Q 3047 3744 3150 3342 
Q 3253 2941 3253 2259 
Q 3253 1453 3087 958 
Q 2922 463 2592 192 
Q 2263 -78 1759 -78 
Q 1097 -78 719 397 
Q 266 969 266 2259 
z
M 844 2259 
Q 844 1131 1108 757 
Q 1372 384 1759 384 
Q 2147 384 2411 759 
Q 2675 1134 2675 2259 
Q 2675 3391 2411 3762 
Q 2147 4134 1753 4134 
Q 1366 4134 1134 3806 
Q 844 3388 844 2259 
z
" transform="scale(0.015625)"/>
       </defs>
       <use xlink:href="#ArialMT-2212"/>
       <use xlink:href="#ArialMT-33" transform="translate(58.398438 0)"/>
       <use xlink:href="#ArialMT-30" transform="translate(114.013672 0)"/>
      </g>
     </g>
    </g>
    <g id="ytick_2">
     <g id="line2d_5">
      <g>
       <use xlink:href="#m9f7b9d88ae" x="41.09" y="219.599008" style="fill: #262626; stroke: #262626; stroke-width: 1.25"/>
      </g>
     </g>
     <g id="text_5">
      <!-- −20 -->
      <g style="fill: #262626" transform="translate(12.93125 223.535805) scale(0.11 -0.11)">
       <defs>
        <path id="ArialMT-32" d="M 3222 541 
L 3222 0 
L 194 0 
Q 188 203 259 391 
Q 375 700 629 1000 
Q 884 1300 1366 1694 
Q 2113 2306 2375 2664 
Q 2638 3022 2638 3341 
Q 2638 3675 2398 3904 
Q 2159 4134 1775 4134 
Q 1369 4134 1125 3890 
Q 881 3647 878 3216 
L 300 3275 
Q 359 3922 746 4261 
Q 1134 4600 1788 4600 
Q 2447 4600 2831 4234 
Q 3216 3869 3216 3328 
Q 3216 3053 3103 2787 
Q 2991 2522 2730 2228 
Q 2469 1934 1863 1422 
Q 1356 997 1212 845 
Q 1069 694 975 541 
L 3222 541 
z
" transform="scale(0.015625)"/>
       </defs>
       <use xlink:href="#ArialMT-2212"/>
       <use xlink:href="#ArialMT-32" transform="translate(58.398438 0)"/>
       <use xlink:href="#ArialMT-30" transform="translate(114.013672 0)"/>
      </g>
     </g>
    </g>
    <g id="ytick_3">
     <g id="line2d_6">
      <g>
       <use xlink:href="#m9f7b9d88ae" x="41.09" y="189.355211" style="fill: #262626; stroke: #262626; stroke-width: 1.25"/>
      </g>
     </g>
     <g id="text_6">
      <!-- −10 -->
      <g style="fill: #262626" transform="translate(12.93125 193.292008) scale(0.11 -0.11)">
       <defs>
        <path id="ArialMT-31" d="M 2384 0 
L 1822 0 
L 1822 3584 
Q 1619 3391 1289 3197 
Q 959 3003 697 2906 
L 697 3450 
Q 1169 3672 1522 3987 
Q 1875 4303 2022 4600 
L 2384 4600 
L 2384 0 
z
" transform="scale(0.015625)"/>
       </defs>
       <use xlink:href="#ArialMT-2212"/>
       <use xlink:href="#ArialMT-31" transform="translate(58.398438 0)"/>
       <use xlink:href="#ArialMT-30" transform="translate(114.013672 0)"/>
      </g>
     </g>
    </g>
    <g id="ytick_4">
     <g id="line2d_7">
      <g>
       <use xlink:href="#m9f7b9d88ae" x="41.09" y="159.111414" style="fill: #262626; stroke: #262626; stroke-width: 1.25"/>
      </g>
     </g>
     <g id="text_7">
      <!-- 0 -->
      <g style="fill: #262626" transform="translate(25.472969 163.048211) scale(0.11 -0.11)">
       <use xlink:href="#ArialMT-30"/>
      </g>
     </g>
    </g>
    <g id="ytick_5">
     <g id="line2d_8">
      <g>
       <use xlink:href="#m9f7b9d88ae" x="41.09" y="128.867617" style="fill: #262626; stroke: #262626; stroke-width: 1.25"/>
      </g>
     </g>
     <g id="text_8">
      <!-- 10 -->
      <g style="fill: #262626" transform="translate(19.355938 132.804414) scale(0.11 -0.11)">
       <use xlink:href="#ArialMT-31"/>
       <use xlink:href="#ArialMT-30" transform="translate(55.615234 0)"/>
      </g>
     </g>
    </g>
    <g id="ytick_6">
     <g id="line2d_9">
      <g>
       <use xlink:href="#m9f7b9d88ae" x="41.09" y="98.62382" style="fill: #262626; stroke: #262626; stroke-width: 1.25"/>
      </g>
     </g>
     <g id="text_9">
      <!-- 20 -->
      <g style="fill: #262626" transform="translate(19.355938 102.560617) scale(0.11 -0.11)">
       <use xlink:href="#ArialMT-32"/>
       <use xlink:href="#ArialMT-30" transform="translate(55.615234 0)"/>
      </g>
     </g>
    </g>
    <g id="ytick_7">
     <g id="line2d_10">
      <g>
       <use xlink:href="#m9f7b9d88ae" x="41.09" y="68.380023" style="fill: #262626; stroke: #262626; stroke-width: 1.25"/>
      </g>
     </g>
     <g id="text_10">
      <!-- 30 -->
      <g style="fill: #262626" transform="translate(19.355938 72.31682) scale(0.11 -0.11)">
       <use xlink:href="#ArialMT-33"/>
       <use xlink:href="#ArialMT-30" transform="translate(55.615234 0)"/>
      </g>
     </g>
    </g>
   </g>
   <g id="FillBetweenPolyCollection_1">
    <defs>
     <path id="m00768b10fa" d="M 221.995676 -126.816545 
L 202.167658 -126.816545 
L 75.288333 -127.945551 
L 171.753804 -129.074558 
L 198.292706 -130.203564 
L 205.219441 -131.332571 
L 208.024396 -132.461577 
L 209.74051 -133.590584 
L 210.395696 -134.71959 
L 210.89833 -135.848596 
L 211.320968 -136.977603 
L 211.690169 -138.106609 
L 211.665513 -139.235616 
L 211.682683 -140.364622 
L 211.744041 -141.493629 
L 211.841278 -142.622635 
L 211.958105 -143.751641 
L 211.985211 -144.880648 
L 212.029075 -146.009654 
L 211.983273 -147.138661 
L 211.953236 -148.267667 
L 211.934142 -149.396674 
L 212.007533 -150.52568 
L 212.005697 -151.654686 
L 212.044011 -152.783693 
L 212.040893 -153.912699 
L 212.075755 -155.041706 
L 212.081662 -156.170712 
L 212.081187 -157.299719 
L 212.062831 -158.428725 
L 212.07878 -159.557732 
L 212.079864 -160.686738 
L 212.061654 -161.815744 
L 212.080799 -162.944751 
L 212.081666 -164.073757 
L 212.081366 -165.202764 
L 212.061277 -166.33177 
L 212.036003 -167.460777 
L 212.059121 -168.589783 
L 212.069322 -169.718789 
L 212.071184 -170.847796 
L 212.061421 -171.976802 
L 212.069525 -173.105809 
L 212.072407 -174.234815 
L 212.067717 -175.363822 
L 212.074982 -176.492828 
L 212.080224 -177.621834 
L 212.06144 -178.750841 
L 212.08055 -179.879847 
L 212.080303 -181.008854 
L 212.061422 -182.13786 
L 212.080494 -183.266867 
L 212.081666 -184.395873 
L 212.081667 -185.524879 
L 212.081667 -186.653886 
L 212.081667 -187.782892 
L 212.081667 -188.911899 
L 212.081667 -190.040905 
L 212.081667 -191.169912 
L 212.081667 -192.298918 
L 212.081666 -193.427924 
L 212.080543 -194.556931 
L 212.061437 -195.685937 
L 212.080246 -196.814944 
L 212.081666 -197.94395 
L 212.081667 -199.072957 
L 212.081667 -200.201963 
L 212.081667 -201.33097 
L 212.081667 -202.459976 
L 212.081667 -203.588982 
L 212.081667 -204.717989 
L 212.081667 -205.846995 
L 212.081667 -206.976002 
L 212.081667 -208.105008 
L 212.081667 -209.234015 
L 212.081667 -210.363021 
L 212.080793 -211.492027 
L 212.061645 -212.621034 
L 212.079877 -213.75004 
L 212.081666 -214.879047 
L 212.081667 -216.008053 
L 212.081667 -217.13706 
L 212.081667 -218.266066 
L 212.081667 -219.395072 
L 212.081667 -220.524079 
L 212.081667 -221.653085 
L 212.081667 -222.782092 
L 212.081667 -223.911098 
L 212.081667 -225.040105 
L 212.081667 -226.169111 
L 212.081667 -227.298117 
L 212.081667 -228.427124 
L 212.081667 -229.55613 
L 212.081667 -230.685137 
L 212.081667 -231.814143 
L 212.081667 -232.94315 
L 212.081667 -234.072156 
L 212.081667 -235.201163 
L 212.081152 -236.330169 
L 212.06265 -237.459175 
L 212.078926 -238.588182 
L 212.084408 -238.588182 
L 212.084408 -238.588182 
L 212.100684 -237.459175 
L 212.082181 -236.330169 
L 212.081667 -235.201163 
L 212.081667 -234.072156 
L 212.081667 -232.94315 
L 212.081667 -231.814143 
L 212.081667 -230.685137 
L 212.081667 -229.55613 
L 212.081667 -228.427124 
L 212.081667 -227.298117 
L 212.081667 -226.169111 
L 212.081667 -225.040105 
L 212.081667 -223.911098 
L 212.081667 -222.782092 
L 212.081667 -221.653085 
L 212.081667 -220.524079 
L 212.081667 -219.395072 
L 212.081667 -218.266066 
L 212.081667 -217.13706 
L 212.081667 -216.008053 
L 212.081667 -214.879047 
L 212.083456 -213.75004 
L 212.101688 -212.621034 
L 212.08254 -211.492027 
L 212.081667 -210.363021 
L 212.081667 -209.234015 
L 212.081667 -208.105008 
L 212.081667 -206.976002 
L 212.081667 -205.846995 
L 212.081667 -204.717989 
L 212.081667 -203.588982 
L 212.081667 -202.459976 
L 212.081667 -201.33097 
L 212.081667 -200.201963 
L 212.081667 -199.072957 
L 212.081667 -197.94395 
L 212.083088 -196.814944 
L 212.101896 -195.685937 
L 212.08279 -194.556931 
L 212.081667 -193.427924 
L 212.081667 -192.298918 
L 212.081667 -191.169912 
L 212.081667 -190.040905 
L 212.081667 -188.911899 
L 212.081667 -187.782892 
L 212.081667 -186.653886 
L 212.081667 -185.524879 
L 212.081667 -184.395873 
L 212.082839 -183.266867 
L 212.101911 -182.13786 
L 212.08303 -181.008854 
L 212.082783 -179.879847 
L 212.101893 -178.750841 
L 212.083109 -177.621834 
L 212.088352 -176.492828 
L 212.095616 -175.363822 
L 212.090926 -174.234815 
L 212.093809 -173.105809 
L 212.101912 -171.976802 
L 212.092149 -170.847796 
L 212.094011 -169.718789 
L 212.104212 -168.589783 
L 212.12733 -167.460777 
L 212.102057 -166.33177 
L 212.081968 -165.202764 
L 212.081667 -164.073757 
L 212.082534 -162.944751 
L 212.101679 -161.815744 
L 212.083469 -160.686738 
L 212.084554 -159.557732 
L 212.100503 -158.428725 
L 212.082146 -157.299719 
L 212.081671 -156.170712 
L 212.087579 -155.041706 
L 212.122441 -153.912699 
L 212.119323 -152.783693 
L 212.157636 -151.654686 
L 212.1558 -150.52568 
L 212.229191 -149.396674 
L 212.210097 -148.267667 
L 212.18006 -147.138661 
L 212.134258 -146.009654 
L 212.178123 -144.880648 
L 212.205228 -143.751641 
L 212.322056 -142.622635 
L 212.419293 -141.493629 
L 212.480651 -140.364622 
L 212.49782 -139.235616 
L 212.473164 -138.106609 
L 212.842365 -136.977603 
L 213.265003 -135.848596 
L 213.767637 -134.71959 
L 214.422824 -133.590584 
L 216.138938 -132.461577 
L 218.943892 -131.332571 
L 225.870627 -130.203564 
L 252.409529 -129.074558 
L 348.875 -127.945551 
L 221.995676 -126.816545 
z
" style="stroke: #484848; stroke-width: 3"/>
    </defs>
    <g clip-path="url(#p4be1173ef8)">
     <use xlink:href="#m00768b10fa" x="0" y="288" style="fill: #cb3335; stroke: #484848; stroke-width: 3"/>
    </g>
   </g>
   <g id="FillBetweenPolyCollection_2">
    <defs>
     <path id="ma2c991df45" d="M 554.069504 -42.351818 
L 554.060496 -42.351818 
L 554.061488 -44.327295 
L 554.065 -46.302772 
L 554.065 -48.278248 
L 554.065 -50.253725 
L 554.065 -52.229202 
L 554.065 -54.204679 
L 554.065 -56.180155 
L 554.065 -58.155632 
L 554.065 -60.131109 
L 554.065 -62.106585 
L 554.065 -64.082062 
L 554.065 -66.057539 
L 554.065 -68.033016 
L 554.065 -70.008492 
L 554.065 -71.983969 
L 554.065 -73.959446 
L 554.065 -75.934923 
L 554.061729 -77.910399 
L 554.05302 -79.885876 
L 554.062986 -81.861353 
L 554.056347 -83.836829 
L 554.063461 -85.812306 
L 554.065 -87.787783 
L 554.060026 -89.76326 
L 554.061847 -91.738736 
L 554.054266 -93.714213 
L 554.063914 -95.68969 
L 554.064237 -97.665167 
L 554.052029 -99.640643 
L 554.065 -101.61612 
L 554.055435 -103.591597 
L 554.035151 -105.567073 
L 554.046517 -107.54255 
L 554.032179 -109.518027 
L 554.01237 -111.493504 
L 553.973391 -113.46898 
L 553.929563 -115.444457 
L 554.00143 -117.419934 
L 553.927093 -119.395411 
L 553.781252 -121.370887 
L 553.204551 -123.346364 
L 552.34423 -125.321841 
L 536.471012 -127.297317 
L 417.271667 -129.272794 
L 546.544071 -131.248271 
L 551.355396 -133.223748 
L 553.29383 -135.199224 
L 553.426559 -137.174701 
L 553.749473 -139.150178 
L 553.913029 -141.125655 
L 553.936135 -143.101131 
L 553.950404 -145.076608 
L 553.879782 -147.052085 
L 554.050257 -149.027561 
L 554.059198 -151.003038 
L 554.000963 -152.978515 
L 554.052288 -154.953992 
L 554.020434 -156.929468 
L 554.005182 -158.904945 
L 554.028807 -160.880422 
L 554.058658 -162.855899 
L 554.03361 -164.831375 
L 554.064998 -166.806852 
L 554.055484 -168.782329 
L 554.063673 -170.757806 
L 554.065 -172.733282 
L 554.065 -174.708759 
L 554.065 -176.684236 
L 554.044306 -178.659712 
L 554.064764 -180.635189 
L 554.065 -182.610666 
L 554.065 -184.586143 
L 554.064953 -186.561619 
L 554.03556 -188.537096 
L 554.064982 -190.512573 
L 554.030175 -192.48805 
L 554.058752 -194.463526 
L 554.065 -196.439003 
L 554.065 -198.41448 
L 554.065 -200.389956 
L 554.065 -202.365433 
L 554.065 -204.34091 
L 554.065 -206.316387 
L 554.065 -208.291863 
L 554.065 -210.26734 
L 554.065 -212.242817 
L 554.062081 -214.218294 
L 554.059677 -216.19377 
L 554.065 -218.169247 
L 554.065 -220.144724 
L 554.065 -222.1202 
L 554.065 -224.095677 
L 554.065 -226.071154 
L 554.065 -228.046631 
L 554.065 -230.022107 
L 554.065 -231.997584 
L 554.065 -233.973061 
L 554.061488 -235.948538 
L 554.060496 -237.924014 
L 554.069504 -237.924014 
L 554.069504 -237.924014 
L 554.068512 -235.948538 
L 554.065 -233.973061 
L 554.065 -231.997584 
L 554.065 -230.022107 
L 554.065 -228.046631 
L 554.065 -226.071154 
L 554.065 -224.095677 
L 554.065 -222.1202 
L 554.065 -220.144724 
L 554.065 -218.169247 
L 554.070323 -216.19377 
L 554.067919 -214.218294 
L 554.065 -212.242817 
L 554.065 -210.26734 
L 554.065 -208.291863 
L 554.065 -206.316387 
L 554.065 -204.34091 
L 554.065 -202.365433 
L 554.065 -200.389956 
L 554.065 -198.41448 
L 554.065 -196.439003 
L 554.071248 -194.463526 
L 554.099825 -192.48805 
L 554.065018 -190.512573 
L 554.09444 -188.537096 
L 554.065047 -186.561619 
L 554.065 -184.586143 
L 554.065 -182.610666 
L 554.065236 -180.635189 
L 554.085694 -178.659712 
L 554.065 -176.684236 
L 554.065 -174.708759 
L 554.065 -172.733282 
L 554.066327 -170.757806 
L 554.074516 -168.782329 
L 554.065002 -166.806852 
L 554.09639 -164.831375 
L 554.071342 -162.855899 
L 554.101193 -160.880422 
L 554.124818 -158.904945 
L 554.109566 -156.929468 
L 554.077712 -154.953992 
L 554.129037 -152.978515 
L 554.070802 -151.003038 
L 554.079743 -149.027561 
L 554.250218 -147.052085 
L 554.179596 -145.076608 
L 554.193865 -143.101131 
L 554.216971 -141.125655 
L 554.380527 -139.150178 
L 554.703441 -137.174701 
L 554.83617 -135.199224 
L 556.774604 -133.223748 
L 561.585929 -131.248271 
L 690.858333 -129.272794 
L 571.658988 -127.297317 
L 555.78577 -125.321841 
L 554.925449 -123.346364 
L 554.348748 -121.370887 
L 554.202907 -119.395411 
L 554.12857 -117.419934 
L 554.200437 -115.444457 
L 554.156609 -113.46898 
L 554.11763 -111.493504 
L 554.097821 -109.518027 
L 554.083483 -107.54255 
L 554.094849 -105.567073 
L 554.074565 -103.591597 
L 554.065 -101.61612 
L 554.077971 -99.640643 
L 554.065763 -97.665167 
L 554.066086 -95.68969 
L 554.075734 -93.714213 
L 554.068153 -91.738736 
L 554.069974 -89.76326 
L 554.065 -87.787783 
L 554.066539 -85.812306 
L 554.073653 -83.836829 
L 554.067014 -81.861353 
L 554.07698 -79.885876 
L 554.068271 -77.910399 
L 554.065 -75.934923 
L 554.065 -73.959446 
L 554.065 -71.983969 
L 554.065 -70.008492 
L 554.065 -68.033016 
L 554.065 -66.057539 
L 554.065 -64.082062 
L 554.065 -62.106585 
L 554.065 -60.131109 
L 554.065 -58.155632 
L 554.065 -56.180155 
L 554.065 -54.204679 
L 554.065 -52.229202 
L 554.065 -50.253725 
L 554.065 -48.278248 
L 554.065 -46.302772 
L 554.068512 -44.327295 
L 554.069504 -42.351818 
z
" style="stroke: #484848; stroke-width: 3"/>
    </defs>
    <g clip-path="url(#p4be1173ef8)">
     <use xlink:href="#ma2c991df45" x="0" y="288" style="fill: #477ca8; stroke: #484848; stroke-width: 3"/>
    </g>
   </g>
   <g id="FillBetweenPolyCollection_3">
    <defs>
     <path id="m506f62eab1" d="M 914.558975 -125.641544 
L 877.537691 -125.641544 
L 864.492971 -125.779292 
L 846.518357 -125.917039 
L 824.465845 -126.054787 
L 800.792763 -126.192534 
L 779.334658 -126.330282 
L 764.371994 -126.46803 
L 759.255 -126.605777 
L 765.180419 -126.743525 
L 780.72727 -126.881272 
L 802.394982 -127.01902 
L 825.86448 -127.156767 
L 847.362813 -127.294515 
L 864.553354 -127.432263 
L 876.714012 -127.57001 
L 884.343053 -127.707758 
L 888.524774 -127.845505 
L 890.353391 -127.983253 
L 890.560211 -128.121 
L 889.351139 -128.258748 
L 886.408035 -128.396495 
L 881.027156 -128.534243 
L 872.403424 -128.671991 
L 860.059829 -128.809738 
L 844.339823 -128.947486 
L 826.763904 -129.085233 
L 809.997121 -129.222981 
L 797.279481 -129.360728 
L 791.436205 -129.498476 
L 793.865886 -129.636224 
L 803.994634 -129.773971 
L 819.480629 -129.911719 
L 837.065738 -130.049466 
L 853.651565 -130.187214 
L 867.123894 -130.324961 
L 876.658075 -130.462709 
L 882.533216 -130.600456 
L 885.677415 -130.738204 
L 887.190337 -130.875952 
L 887.998633 -131.013699 
L 888.689418 -131.151447 
L 889.495533 -131.289194 
L 890.379435 -131.426942 
L 891.161621 -131.564689 
L 891.648879 -131.702437 
L 891.731001 -131.840185 
L 891.428877 -131.977932 
L 890.88997 -132.11568 
L 890.338608 -132.253427 
L 889.999662 -132.391175 
L 890.023064 -132.528922 
L 890.437804 -132.66667 
L 891.152557 -132.804418 
L 891.999441 -132.942165 
L 892.798741 -133.079913 
L 893.416618 -133.21766 
L 893.796427 -133.355408 
L 893.95925 -133.493155 
L 893.980961 -133.630903 
L 893.957579 -133.76865 
L 893.970093 -133.906398 
L 894.057923 -134.044146 
L 894.207582 -134.181893 
L 894.359262 -134.319641 
L 894.429043 -134.457388 
L 894.34 -134.595136 
L 894.053126 -134.732883 
L 893.588537 -134.870631 
L 893.028509 -135.008379 
L 892.49733 -135.146126 
L 892.120078 -135.283874 
L 891.972054 -135.421621 
L 892.03771 -135.559369 
L 892.197404 -135.697116 
L 892.251366 -135.834864 
L 891.977475 -135.972612 
L 891.208382 -136.110359 
L 889.90601 -136.248107 
L 888.207131 -136.385854 
L 886.415158 -136.523602 
L 884.92627 -136.661349 
L 884.104588 -136.799097 
L 884.150593 -136.936844 
L 885.019529 -137.074592 
L 886.428867 -137.21234 
L 887.953388 -137.350087 
L 889.167457 -137.487835 
L 889.778835 -137.625582 
L 889.70991 -137.76333 
L 889.106975 -137.901077 
L 888.281342 -138.038825 
L 887.603088 -138.176573 
L 887.381083 -138.31432 
L 887.76948 -138.452068 
L 888.733871 -138.589815 
L 890.086674 -138.727563 
L 891.570781 -138.86531 
L 892.950907 -139.003058 
L 894.075165 -139.140805 
L 894.890903 -139.278553 
L 897.205764 -139.278553 
L 897.205764 -139.278553 
L 898.021501 -139.140805 
L 899.14576 -139.003058 
L 900.525885 -138.86531 
L 902.009992 -138.727563 
L 903.362796 -138.589815 
L 904.327187 -138.452068 
L 904.715584 -138.31432 
L 904.493579 -138.176573 
L 903.815325 -138.038825 
L 902.989691 -137.901077 
L 902.386757 -137.76333 
L 902.317831 -137.625582 
L 902.929209 -137.487835 
L 904.143279 -137.350087 
L 905.667799 -137.21234 
L 907.077138 -137.074592 
L 907.946073 -136.936844 
L 907.992079 -136.799097 
L 907.170397 -136.661349 
L 905.681508 -136.523602 
L 903.889535 -136.385854 
L 902.190657 -136.248107 
L 900.888284 -136.110359 
L 900.119192 -135.972612 
L 899.845301 -135.834864 
L 899.899263 -135.697116 
L 900.058957 -135.559369 
L 900.124612 -135.421621 
L 899.976589 -135.283874 
L 899.599337 -135.146126 
L 899.068157 -135.008379 
L 898.50813 -134.870631 
L 898.043541 -134.732883 
L 897.756667 -134.595136 
L 897.667624 -134.457388 
L 897.737405 -134.319641 
L 897.889085 -134.181893 
L 898.038744 -134.044146 
L 898.126574 -133.906398 
L 898.139088 -133.76865 
L 898.115706 -133.630903 
L 898.137417 -133.493155 
L 898.300239 -133.355408 
L 898.680048 -133.21766 
L 899.297926 -133.079913 
L 900.097226 -132.942165 
L 900.94411 -132.804418 
L 901.658862 -132.66667 
L 902.073602 -132.528922 
L 902.097005 -132.391175 
L 901.758058 -132.253427 
L 901.206697 -132.11568 
L 900.667789 -131.977932 
L 900.365666 -131.840185 
L 900.447787 -131.702437 
L 900.935046 -131.564689 
L 901.717232 -131.426942 
L 902.601134 -131.289194 
L 903.407249 -131.151447 
L 904.098034 -131.013699 
L 904.90633 -130.875952 
L 906.419251 -130.738204 
L 909.563451 -130.600456 
L 915.438592 -130.462709 
L 924.972772 -130.324961 
L 938.445101 -130.187214 
L 955.030928 -130.049466 
L 972.616038 -129.911719 
L 988.102033 -129.773971 
L 998.230781 -129.636224 
L 1000.660461 -129.498476 
L 994.817186 -129.360728 
L 982.099546 -129.222981 
L 965.332763 -129.085233 
L 947.756844 -128.947486 
L 932.036838 -128.809738 
L 919.693243 -128.671991 
L 911.069511 -128.534243 
L 905.688632 -128.396495 
L 902.745528 -128.258748 
L 901.536455 -128.121 
L 901.743276 -127.983253 
L 903.571893 -127.845505 
L 907.753613 -127.707758 
L 915.382655 -127.57001 
L 927.543313 -127.432263 
L 944.733853 -127.294515 
L 966.232186 -127.156767 
L 989.701685 -127.01902 
L 1011.369397 -126.881272 
L 1026.916247 -126.743525 
L 1032.841667 -126.605777 
L 1027.724673 -126.46803 
L 1012.762008 -126.330282 
L 991.303904 -126.192534 
L 967.630822 -126.054787 
L 945.578309 -125.917039 
L 927.603696 -125.779292 
L 914.558975 -125.641544 
z
" style="stroke: #484848; stroke-width: 3"/>
    </defs>
    <g clip-path="url(#p4be1173ef8)">
     <use xlink:href="#m506f62eab1" x="0" y="288" style="fill: #59a257; stroke: #484848; stroke-width: 3"/>
    </g>
   </g>
   <g id="line2d_11">
    <path d="M 212.081667 160.224676 
L 212.081667 157.808958 
" clip-path="url(#p4be1173ef8)" style="fill: none; stroke: #484848; stroke-width: 4.5; stroke-linecap: round"/>
   </g>
   <g id="line2d_12">
    <path d="M 212.081667 160.142977 
L 212.081667 159.208069 
" clip-path="url(#p4be1173ef8)" style="fill: none; stroke: #484848; stroke-width: 13.5; stroke-linecap: round"/>
   </g>
   <g id="line2d_13">
    <path d="M 212.081667 159.962411 
" clip-path="url(#p4be1173ef8)" style="fill: none; stroke: #484848; stroke-width: 1.5; stroke-linecap: round"/>
    <defs>
     <path id="m3334d375f1" d="M 5.625 0 
L -5.625 -0 
" style="stroke: #ffffff; stroke-width: 2.7"/>
    </defs>
    <g clip-path="url(#p4be1173ef8)">
     <use xlink:href="#m3334d375f1" x="212.081667" y="159.962411" style="fill: #ffffff; stroke: #ffffff; stroke-width: 2.7"/>
    </g>
   </g>
   <g id="line2d_14">
    <path d="M 554.065 159.993112 
L 554.065 158.568339 
" clip-path="url(#p4be1173ef8)" style="fill: none; stroke: #484848; stroke-width: 4.5; stroke-linecap: round"/>
   </g>
   <g id="line2d_15">
    <path d="M 554.065 159.459066 
L 554.065 159.102285 
" clip-path="url(#p4be1173ef8)" style="fill: none; stroke: #484848; stroke-width: 13.5; stroke-linecap: round"/>
   </g>
   <g id="line2d_16">
    <path d="M 554.065 159.369497 
" clip-path="url(#p4be1173ef8)" style="fill: none; stroke: #484848; stroke-width: 1.5; stroke-linecap: round"/>
    <g clip-path="url(#p4be1173ef8)">
     <use xlink:href="#m3334d375f1" x="554.065" y="159.369497" style="fill: #ffffff; stroke: #ffffff; stroke-width: 2.7"/>
    </g>
   </g>
   <g id="line2d_17">
    <path d="M 896.048333 161.399677 
L 896.048333 154.07502 
" clip-path="url(#p4be1173ef8)" style="fill: none; stroke: #484848; stroke-width: 4.5; stroke-linecap: round"/>
   </g>
   <g id="line2d_18">
    <path d="M 896.048333 161.399677 
L 896.048333 158.469814 
" clip-path="url(#p4be1173ef8)" style="fill: none; stroke: #484848; stroke-width: 13.5; stroke-linecap: round"/>
   </g>
   <g id="line2d_19">
    <path d="M 896.048333 158.469814 
" clip-path="url(#p4be1173ef8)" style="fill: none; stroke: #484848; stroke-width: 1.5; stroke-linecap: round"/>
    <g clip-path="url(#p4be1173ef8)">
     <use xlink:href="#m3334d375f1" x="896.048333" y="158.469814" style="fill: #ffffff; stroke: #ffffff; stroke-width: 2.7"/>
    </g>
   </g>
   <g id="patch_3">
    <path d="M 41.09 255.46 
L 41.09 39.6 
" style="fill: none; stroke: #262626; stroke-width: 1.25; stroke-linejoin: miter; stroke-linecap: square"/>
   </g>
   <g id="patch_4">
    <path d="M 1067.04 255.46 
L 1067.04 39.6 
" style="fill: none; stroke: #262626; stroke-width: 1.25; stroke-linejoin: miter; stroke-linecap: square"/>
   </g>
   <g id="patch_5">
    <path d="M 41.09 255.46 
L 1067.04 255.46 
" style="fill: none; stroke: #262626; stroke-width: 1.25; stroke-linejoin: miter; stroke-linecap: square"/>
   </g>
   <g id="patch_6">
    <path d="M 41.09 39.6 
L 1067.04 39.6 
" style="fill: none; stroke: #262626; stroke-width: 1.25; stroke-linejoin: miter; stroke-linecap: square"/>
   </g>
  </g>
  <g id="text_11">
   <!-- Violin Plot of all Continuous Variables -->
   <g style="fill: #262626" transform="translate(416.035547 16.496719) scale(0.15 -0.15)">
    <defs>
     <path id="ArialMT-56" d="M 1803 0 
L 28 4581 
L 684 4581 
L 1875 1253 
Q 2019 853 2116 503 
Q 2222 878 2363 1253 
L 3600 4581 
L 4219 4581 
L 2425 0 
L 1803 0 
z
" transform="scale(0.015625)"/>
     <path id="ArialMT-20" transform="scale(0.015625)"/>
     <path id="ArialMT-43" d="M 3763 1606 
L 4369 1453 
Q 4178 706 3683 314 
Q 3188 -78 2472 -78 
Q 1731 -78 1267 223 
Q 803 525 561 1097 
Q 319 1669 319 2325 
Q 319 3041 592 3573 
Q 866 4106 1370 4382 
Q 1875 4659 2481 4659 
Q 3169 4659 3637 4309 
Q 4106 3959 4291 3325 
L 3694 3184 
Q 3534 3684 3231 3912 
Q 2928 4141 2469 4141 
Q 1941 4141 1586 3887 
Q 1231 3634 1087 3207 
Q 944 2781 944 2328 
Q 944 1744 1114 1308 
Q 1284 872 1643 656 
Q 2003 441 2422 441 
Q 2931 441 3284 734 
Q 3638 1028 3763 1606 
z
" transform="scale(0.015625)"/>
     <path id="ArialMT-62" d="M 941 0 
L 419 0 
L 419 4581 
L 981 4581 
L 981 2947 
Q 1338 3394 1891 3394 
Q 2197 3394 2470 3270 
Q 2744 3147 2920 2923 
Q 3097 2700 3197 2384 
Q 3297 2069 3297 1709 
Q 3297 856 2875 390 
Q 2453 -75 1863 -75 
Q 1275 -75 941 416 
L 941 0 
z
M 934 1684 
Q 934 1088 1097 822 
Q 1363 388 1816 388 
Q 2184 388 2453 708 
Q 2722 1028 2722 1663 
Q 2722 2313 2464 2622 
Q 2206 2931 1841 2931 
Q 1472 2931 1203 2611 
Q 934 2291 934 1684 
z
" transform="scale(0.015625)"/>
    </defs>
    <use xlink:href="#ArialMT-56"/>
    <use xlink:href="#ArialMT-69" transform="translate(64.949219 0)"/>
    <use xlink:href="#ArialMT-6f" transform="translate(87.166016 0)"/>
    <use xlink:href="#ArialMT-6c" transform="translate(142.78125 0)"/>
    <use xlink:href="#ArialMT-69" transform="translate(164.998047 0)"/>
    <use xlink:href="#ArialMT-6e" transform="translate(187.214844 0)"/>
    <use xlink:href="#ArialMT-20" transform="translate(242.830078 0)"/>
    <use xlink:href="#ArialMT-50" transform="translate(270.613281 0)"/>
    <use xlink:href="#ArialMT-6c" transform="translate(337.3125 0)"/>
    <use xlink:href="#ArialMT-6f" transform="translate(359.529297 0)"/>
    <use xlink:href="#ArialMT-74" transform="translate(415.144531 0)"/>
    <use xlink:href="#ArialMT-20" transform="translate(442.927734 0)"/>
    <use xlink:href="#ArialMT-6f" transform="translate(470.710938 0)"/>
    <use xlink:href="#ArialMT-66" transform="translate(526.326172 0)"/>
    <use xlink:href="#ArialMT-20" transform="translate(554.109375 0)"/>
    <use xlink:href="#ArialMT-61" transform="translate(581.892578 0)"/>
    <use xlink:href="#ArialMT-6c" transform="translate(637.507812 0)"/>
    <use xlink:href="#ArialMT-6c" transform="translate(659.724609 0)"/>
    <use xlink:href="#ArialMT-20" transform="translate(681.941406 0)"/>
    <use xlink:href="#ArialMT-43" transform="translate(709.724609 0)"/>
    <use xlink:href="#ArialMT-6f" transform="translate(781.941406 0)"/>
    <use xlink:href="#ArialMT-6e" transform="translate(837.556641 0)"/>
    <use xlink:href="#ArialMT-74" transform="translate(893.171875 0)"/>
    <use xlink:href="#ArialMT-69" transform="translate(920.955078 0)"/>
    <use xlink:href="#ArialMT-6e" transform="translate(943.171875 0)"/>
    <use xlink:href="#ArialMT-75" transform="translate(998.787109 0)"/>
    <use xlink:href="#ArialMT-6f" transform="translate(1054.402344 0)"/>
    <use xlink:href="#ArialMT-75" transform="translate(1110.017578 0)"/>
    <use xlink:href="#ArialMT-73" transform="translate(1165.632812 0)"/>
    <use xlink:href="#ArialMT-20" transform="translate(1215.632812 0)"/>
    <use xlink:href="#ArialMT-56" transform="translate(1243.416016 0)"/>
    <use xlink:href="#ArialMT-61" transform="translate(1302.740234 0)"/>
    <use xlink:href="#ArialMT-72" transform="translate(1358.355469 0)"/>
    <use xlink:href="#ArialMT-69" transform="translate(1391.65625 0)"/>
    <use xlink:href="#ArialMT-61" transform="translate(1413.873047 0)"/>
    <use xlink:href="#ArialMT-62" transform="translate(1469.488281 0)"/>
    <use xlink:href="#ArialMT-6c" transform="translate(1525.103516 0)"/>
    <use xlink:href="#ArialMT-65" transform="translate(1547.320312 0)"/>
    <use xlink:href="#ArialMT-73" transform="translate(1602.935547 0)"/>
   </g>
  </g>
 </g>
 <defs>
  <clipPath id="p4be1173ef8">
   <rect x="41.09" y="39.6" width="1025.95" height="215.86"/>
  </clipPath>
 </defs>
</svg>
